<?xml version="1.0" standalone="no"?>
<!DOCTYPE svg PUBLIC "-//W3C//DTD SVG 20010904//EN"
 "http://www.w3.org/TR/2001/REC-SVG-20010904/DTD/svg10.dtd">
<svg version="1.0" xmlns="http://www.w3.org/2000/svg"
 width="1040.000000pt" height="1040.000000pt" viewBox="0 0 1040.000000 1040.000000"
 preserveAspectRatio="xMidYMid meet">
<metadata>
Created by potrace 1.14, written by Peter Selinger 2001-2017
</metadata>
<g transform="translate(0.000000,1040.000000) scale(0.100000,-0.100000)"
fill="#000000" stroke="none">
<path d="M6560 7021 c0 -7 -7 -10 -18 -7 -18 6 -53 -28 -271 -263 -18 -20 -90
-96 -160 -170 -69 -74 -139 -148 -156 -166 -16 -17 -83 -87 -147 -156 -64 -68
-156 -166 -205 -218 -48 -52 -106 -113 -128 -136 -22 -24 -87 -93 -145 -155
-58 -62 -130 -139 -160 -170 -30 -32 -96 -102 -147 -156 -50 -55 -117 -126
-148 -159 -31 -33 -85 -90 -118 -126 -34 -36 -111 -118 -172 -182 -60 -64
-113 -117 -118 -117 -5 0 -46 33 -91 73 -94 82 -206 180 -375 326 -29 25 -58
51 -65 56 -6 6 -60 53 -121 105 -60 52 -126 109 -145 126 -19 18 -75 67 -125
109 -117 101 -204 176 -224 195 -9 8 -46 40 -81 70 -36 30 -75 64 -86 75 -12
11 -48 43 -80 70 -32 28 -68 59 -80 70 -79 69 -118 100 -126 100 -7 0 -2578
-2564 -2646 -2638 -15 -17 0 -34 268 -302 157 -157 289 -285 294 -285 5 0 483
475 1064 1055 580 580 1057 1055 1061 1055 3 0 24 -17 47 -38 22 -20 65 -57
94 -82 30 -25 64 -54 76 -65 43 -39 91 -81 199 -175 61 -52 112 -97 115 -100
3 -3 34 -30 70 -60 36 -30 70 -59 76 -65 36 -33 154 -137 184 -161 19 -16 40
-33 46 -39 6 -5 27 -25 48 -43 21 -18 36 -36 34 -41 -3 -9 -143 -162 -248
-271 -30 -31 -102 -108 -160 -170 -58 -62 -133 -142 -168 -178 l-63 -65 28
-30 c15 -17 40 -41 54 -54 43 -37 245 -227 428 -400 42 -40 81 -73 86 -73 6 0
38 30 71 68 34 37 86 92 115 123 30 31 86 89 124 130 39 41 129 137 200 213
72 76 134 144 138 152 12 21 28 17 63 -14 18 -15 42 -36 55 -47 13 -12 49 -43
79 -69 94 -83 113 -100 174 -151 33 -28 72 -61 86 -75 15 -14 48 -43 75 -65
26 -22 66 -57 89 -77 22 -21 44 -38 47 -38 3 0 23 20 44 45 21 25 50 59 64 74
14 16 44 49 65 75 21 26 51 60 65 75 14 16 45 51 68 77 60 70 115 134 136 158
53 60 89 105 89 111 -1 6 -27 30 -176 159 -32 28 -64 56 -70 61 -6 6 -40 35
-75 65 -36 30 -72 62 -81 70 -9 8 -47 42 -85 75 -38 33 -82 71 -97 85 l-28 25
72 79 c40 43 101 108 136 143 34 36 62 66 62 67 0 2 30 34 68 73 37 39 112
119 167 178 55 59 118 127 140 150 46 47 255 270 311 330 20 22 89 95 153 163
182 193 294 313 342 365 l44 48 40 -37 c22 -20 87 -80 145 -133 58 -54 117
-109 131 -122 37 -34 224 -207 269 -249 21 -19 82 -75 136 -125 53 -49 110
-101 124 -115 59 -55 254 -236 270 -250 10 -8 70 -64 136 -125 156 -145 249
-232 299 -277 22 -21 61 -57 86 -80 25 -24 92 -86 149 -138 56 -52 122 -113
145 -135 23 -22 82 -76 130 -120 48 -44 106 -98 130 -120 23 -22 86 -80 140
-130 54 -49 130 -120 169 -156 39 -37 85 -79 101 -94 76 -69 212 -194 258
-237 27 -27 52 -48 54 -48 5 0 114 116 287 305 60 65 222 239 244 261 28 29
28 31 -7 62 -27 26 -207 192 -261 242 -24 22 -115 106 -254 235 -24 22 -90 84
-147 137 -57 53 -113 105 -125 115 -12 10 -70 64 -130 119 -60 56 -125 116
-144 134 -19 18 -84 78 -145 135 -60 56 -134 124 -164 151 -30 27 -71 65 -91
84 -20 19 -63 60 -96 90 -32 30 -93 86 -135 125 -64 59 -190 176 -325 300 -18
17 -72 66 -120 110 -47 44 -106 98 -129 120 -23 22 -84 79 -136 126 -52 48
-110 102 -130 120 -19 19 -77 72 -128 119 -51 47 -114 105 -140 130 -26 25
-85 79 -130 120 -46 41 -113 104 -151 140 -38 36 -101 94 -141 130 -65 59
-136 124 -211 197 -16 14 -28 21 -28 14z"/>
</g>
</svg>
